<svg width="14" height="14" viewBox="0 0 14 14" fill="none" xmlns="http://www.w3.org/2000/svg">
<g id="Iconsax/Linear/clipboardtext">
<path id="Vector" d="M5.08334 7.11081H8.96251M5.08334 9.32748H7.51059M6.19168 3.67498H8.40834C9.51668 3.67498 9.51668 3.12081 9.51668 2.56665C9.51668 1.45831 8.96251 1.45831 8.40834 1.45831H6.19168C5.63751 1.45831 5.08334 1.45831 5.08334 2.56665C5.08334 3.67498 5.63751 3.67498 6.19168 3.67498Z" stroke="#0771DE" stroke-width="0.83125" stroke-miterlimit="10" stroke-linecap="round" stroke-linejoin="round"/>
<path id="Vector_2" d="M9.51667 2.57745C11.362 2.6772 12.2875 3.35883 12.2875 5.89137V9.21637C12.2875 11.433 11.7333 12.5414 8.9625 12.5414H5.6375C2.86667 12.5414 2.3125 11.433 2.3125 9.21637V5.89137C2.3125 3.36437 3.23796 2.6772 5.08333 2.57745" stroke="#0771DE" stroke-width="0.83125" stroke-miterlimit="10" stroke-linecap="round" stroke-linejoin="round"/>
</g>
</svg>
